<?xml version="1.0" encoding="utf-8"?>
<!-- Generator: Adobe Illustrator 17.0.0, SVG Export Plug-In . SVG Version: 6.00 Build 0)  -->
<!DOCTYPE svg PUBLIC "-//W3C//DTD SVG 1.1//EN" "http://www.w3.org/Graphics/SVG/1.1/DTD/svg11.dtd">
<svg version="1.1" id="Capa_1" xmlns="http://www.w3.org/2000/svg" xmlns:xlink="http://www.w3.org/1999/xlink" x="0px" y="0px"
	 width="535px" height="427px" viewBox="0 0 535 427" enable-background="new 0 0 535 427" xml:space="preserve">
<g>
	<defs>
		<path id="SVGID_1_" d="M404.781,34.215l-77.655,39.932c-0.571,0.229-0.632,1.352-0.148,1.709l14.616,9.567h-0.001l-54.145,90.019
			c7.552,12.101,14.649,24.767,22.2,36.87c4.568,7.881,6.217,15.764,4.94,23.451c28.314-43.905,44.239-76.581,72.508-120.541
			l14.641,9.55c0.485,0.378,1.488-0.131,1.554-0.726l2.899-88.848c0.073-0.516-0.593-1.036-1.135-1.036
			C404.958,34.161,404.865,34.178,404.781,34.215"/>
	</defs>
	<clipPath id="SVGID_2_">
		<use xlink:href="#SVGID_1_"  overflow="visible"/>
	</clipPath>
	
		<radialGradient id="SVGID_3_" cx="-126" cy="523" r="1" gradientTransform="matrix(26.6749 -39.4319 40.9037 25.8178 -17752.4648 -18215.2246)" gradientUnits="userSpaceOnUse">
		<stop  offset="0" style="stop-color:#282829"/>
		<stop  offset="0.3294" style="stop-color:#2C3F5D"/>
		<stop  offset="1" style="stop-color:#305590"/>
	</radialGradient>
	<polygon clip-path="url(#SVGID_2_)" fill="url(#SVGID_3_)" points="370.711,288.317 501.835,94.485 323,-18.393 191.876,175.439 	
		"/>
</g>
<g>
	<defs>
		<path id="SVGID_4_" d="M124.756,116.897c10.517,17.134,21.031,34.266,31.546,51.4l24.157-43.406l-18.301-31.56
			c-5.17-8.911-9.521-16.698-6.906-26.85L124.756,116.897z"/>
	</defs>
	<clipPath id="SVGID_5_">
		<use xlink:href="#SVGID_4_"  overflow="visible"/>
	</clipPath>
	
		<linearGradient id="SVGID_6_" gradientUnits="userSpaceOnUse" x1="-126" y1="522.9944" x2="-125" y2="522.9944" gradientTransform="matrix(15.1934 -97.0061 97.0061 15.1934 -48673.0273 -20010.9434)">
		<stop  offset="0" style="stop-color:#305590"/>
		<stop  offset="1" style="stop-color:#373435"/>
	</linearGradient>
	<polygon clip-path="url(#SVGID_5_)" fill="url(#SVGID_6_)" points="179.125,176.813 196.024,68.919 126.09,57.966 109.191,165.859 
			"/>
</g>
<g>
	<defs>
		<path id="SVGID_7_" d="M171.983,45.383c-13.449,8.339-17.286,25.957-9.287,39.611l94.894,161.951
			c7.998,13.654,26.163,17.626,39.612,9.286c13.448-8.34,17.286-25.959,9.287-39.61L211.594,54.669
			c-5.185-8.849-14.638-13.632-24.311-13.631C182.032,41.038,176.715,42.448,171.983,45.383"/>
	</defs>
	<clipPath id="SVGID_8_">
		<use xlink:href="#SVGID_7_"  overflow="visible"/>
	</clipPath>
	
		<linearGradient id="SVGID_9_" gradientUnits="userSpaceOnUse" x1="-126" y1="523.0032" x2="-125" y2="523.0032" gradientTransform="matrix(141.0503 259.4965 -259.4965 141.0503 153688.875 -40985.8047)">
		<stop  offset="0" style="stop-color:#66BC50"/>
		<stop  offset="1" style="stop-color:#E8E62D"/>
	</linearGradient>
	<polygon clip-path="url(#SVGID_8_)" fill="url(#SVGID_9_)" points="60.905,92.018 191.14,331.617 408.28,213.59 278.045,-26.009 	
		"/>
</g>
<g>
	<defs>
		<rect id="SVGID_10_" x="-126" y="-89" width="792" height="612"/>
	</defs>
	<clipPath id="SVGID_11_">
		<use xlink:href="#SVGID_10_"  overflow="visible"/>
	</clipPath>
	<path clip-path="url(#SVGID_11_)" fill="#30548D" d="M283.306,392.122c2.245,3.484,6.351,5.512,11.492,4.448
		c1.601-0.329,3.1-1.059,4.358-2.053c4.825-3.818,4.589-8.685,1.201-13.38l-59.933-83.616l-0.031,0.018
		c-2.371-3.075-6.042-4.841-11.039-3.81c-4.996,1.03-9.184,6.199-7.878,11.228c0.172,0.664,0.425,1.304,0.74,1.898
		c0.174,0.328,0.346,0.648,0.563,0.94L283.306,392.122z"/>
	<path clip-path="url(#SVGID_11_)" fill-rule="evenodd" clip-rule="evenodd" fill="#30548D" d="M294.926,293.253h0.002
		c5.748,0,10.453,4.712,10.453,10.453v75.817c0,0.846-0.103,1.683-0.299,2.476c0.276-2.416-0.635-4.969-2.441-7.474l-18.168-24.717
		v-46.102C284.473,297.958,289.178,293.252,294.926,293.253L294.926,293.253z"/>
	<path clip-path="url(#SVGID_11_)" fill="#30548D" d="M65.063,390.232c1.493,3.866,5.627,6.683,10.352,6.683
		c5.777,0,10.249-4.211,9.988-9.402c-0.05-1-0.273-1.962-0.639-2.865l0.011-0.004L45.7,299.44l-0.033,0.011
		c-1.701-3.493-5.612-5.967-10.038-5.967c-5.776,0-10.25,4.21-9.989,9.399c0.047,0.945,0.249,1.859,0.581,2.718l-0.026,0.009
		L65.063,390.232z"/>
	<path clip-path="url(#SVGID_11_)" fill="#30548D" d="M88.873,386.109l0.161-0.592c0.15-0.7,0.21-1.433,0.174-2.186
		c-0.05-0.998-0.272-1.962-0.639-2.867l0.012-0.002l-9.44-20.583l27.487-60.439l0.034,0.011c5.621-11.549,24.261-4.128,18.878,7.432
		L88.873,386.109z"/>
	<path clip-path="url(#SVGID_11_)" fill="#30548D" d="M163.8,378.127h34.95v0.003c5.711,0.068,10.315,4.253,10.315,9.401
		c0,5.147-4.604,9.331-10.315,9.4v0.006c-15.738-0.013-25.939-0.027-41.677-0.041c-0.057-0.009,6.727-1.714,6.727-10.315V378.127z
		 M163.687,312.123h34.951v-0.004c5.71-0.067,10.315-4.252,10.315-9.4c0-4.116-2.944-7.615-7.042-8.887
		c-2.192-0.679-4.425-0.517-6.685-0.517c-14.171,0.011-23.681,0.027-38.266,0.038c-0.056,0.01,6.727,1.717,6.727,10.315V312.123z"/>
	<path clip-path="url(#SVGID_11_)" fill-rule="evenodd" clip-rule="evenodd" fill="#30548D" d="M329.282,293.475h0.002
		c5.646,0,10.265,4.617,10.265,10.268v35.403l33.54-42.031c3.523-4.415,10.014-5.146,14.427-1.622h0.002
		c4.413,3.523,5.143,10.012,1.62,14.428l-49.589,62.146v14.514c0,5.652-4.619,10.268-10.265,10.268h-0.002
		c-5.647,0-10.266-4.616-10.266-10.268v-82.838C319.016,298.092,323.635,293.475,329.282,293.475"/>
	<path clip-path="url(#SVGID_11_)" fill-rule="evenodd" clip-rule="evenodd" fill="#30548D" d="M386.71,394.828l-0.002,0.002
		c-3.987,3.988-10.942,2.544-14.389-1.928l-21.098-27.364l13.447-16.276l23.97,31.177C392.079,384.913,390.7,390.839,386.71,394.828
		"/>
	<path clip-path="url(#SVGID_11_)" fill="#30548D" d="M443.46,300.149c1.493-3.866,5.628-6.683,10.352-6.683
		c5.777,0,10.249,4.21,9.988,9.402c-0.05,1-0.273,1.961-0.64,2.865l0.013,0.004l-39.075,85.204l-0.034-0.011
		c-1.702,3.493-5.612,5.967-10.038,5.967c-5.776,0-10.25-4.21-9.989-9.399c0.047-0.945,0.248-1.86,0.58-2.719l-0.024-0.008
		L443.46,300.149z"/>
	<path clip-path="url(#SVGID_11_)" fill="#30548D" d="M466.648,303.199l0.16,0.592c0.151,0.7,0.21,1.433,0.175,2.186
		c-0.05,0.998-0.273,1.962-0.64,2.867l0.012,0.002l-9.439,20.582l10.005,21.995h-18.577l-8.648,19.209h36.033l9.523,20.761
		l0.034-0.009c1.7,3.492,5.611,5.966,10.037,5.966c5.776,0,10.25-4.211,9.99-9.399c-0.048-0.945-0.249-1.859-0.581-2.719
		l0.024-0.009L466.648,303.199z"/>
	<path clip-path="url(#SVGID_11_)" fill-rule="evenodd" clip-rule="evenodd" fill="#30548D" d="M149.067,293.475h0.002
		c5.647,0,10.266,4.617,10.266,10.268v32.761h19.974l0.386-0.007l0.386,0.007h0.142v0.005c5.664,0.248,10.173,4.453,10.173,9.607
		c0,5.306-4.791,9.614-10.701,9.614c-0.215,0-0.427-0.005-0.641-0.017h-19.719v30.868c0,5.652-4.619,10.268-10.266,10.268h-0.002
		c-5.647,0-10.266-4.616-10.266-10.268v-82.838C138.801,298.092,143.42,293.475,149.067,293.475"/>
	<path clip-path="url(#SVGID_11_)" fill-rule="evenodd" clip-rule="evenodd" fill="#30548D" d="M229.489,397.167h-0.002
		c-5.746,0-10.454-4.711-10.454-10.454V310.84c0-0.848,0.105-1.683,0.3-2.476c-0.276,2.416,0.635,4.969,2.441,7.474l18.169,24.717
		v46.158C239.943,392.459,235.235,397.167,229.489,397.167"/>
</g>
</svg>
